<svg width="430" height="114" viewBox="0 0 430 114" fill="none" xmlns="http://www.w3.org/2000/svg">
<circle cx="46" cy="57" r="46" fill="#1CC88A"/>
<rect x="23.7667" y="27.1" width="44.4667" height="60.5667" rx="22.2333" fill="white"/>
<circle cx="39.1" cy="51.6333" r="5.36667" fill="#1CC88A"/>
<circle cx="54.8167" cy="50.4833" r="4.21667" fill="#1CC88A"/>
<path d="M49.7583 71.3373C53.3724 70.2546 53.3955 74.4599 49.8878 75.8493C46.5816 77.159 41.8542 76.782 39.0605 74.5838C38.5336 74.1692 38.0522 73.7362 37.606 73.2805C34.5164 70.1253 35.2344 66.4007 38.5899 69.2715C40.1482 70.6047 42.0094 71.924 44.053 72.1389C46.1483 72.3593 48.132 71.8245 49.7583 71.3373Z" fill="#1CC88A"/>
<path d="M135.51 83H121.75L107.27 29.08H120.23C124.603 46.5733 127.137 57.0533 127.83 60.52C128.523 63.9333 129.057 66.9467 129.43 69.56C130.283 65.6667 133.883 52.44 140.23 29.88H149.35C155.217 50.9467 158.737 64.1733 159.91 69.56C160.603 64.8133 162.097 57.9067 164.39 48.84L169.35 29.08H181.91L167.51 83H153.75C148.257 63.16 145.27 51.8 144.79 48.92C144.63 51.1067 143.19 56.7867 140.47 65.96L135.51 83ZM205.406 50.92C203.54 50.92 201.886 51.6133 200.446 53C199.006 54.3333 198.046 56.3333 197.566 59H211.646V58.04C211.273 53.2933 209.193 50.92 205.406 50.92ZM220.046 80.68C217.273 82.4933 212.793 83.4 206.606 83.4C200.42 83.4 195.46 81.48 191.726 77.64C188.046 73.7467 186.206 68.68 186.206 62.44C186.206 56.1467 187.993 51.1867 191.566 47.56C195.193 43.88 199.673 42.04 205.006 42.04C210.393 42.04 214.66 43.64 217.806 46.84C220.953 49.9867 222.526 54.7067 222.526 61C222.526 62.2267 222.313 64.3333 221.886 67.32H198.046C198.846 69.56 200.233 71.2933 202.206 72.52C204.18 73.7467 206.553 74.36 209.326 74.36C213.433 74.36 217.006 73.2133 220.046 70.92V80.68ZM268.063 83H256.383V58.84C256.383 56.44 255.823 54.6267 254.703 53.4C253.583 52.12 251.983 51.48 249.903 51.48C247.823 51.48 246.063 52.3333 244.623 54.04C243.236 55.6933 242.543 58.2 242.543 61.56V83H230.863V42.44H242.543V49.32C243.556 47.08 245.103 45.32 247.182 44.04C249.316 42.7067 251.849 42.04 254.783 42.04C258.943 42.04 262.196 43.2933 264.543 45.8C266.889 48.2533 268.063 51.88 268.063 56.68V83ZM316.549 83H304.869V76.68C302.149 81.2133 298.122 83.48 292.789 83.48C287.455 83.48 283.189 81.4267 279.989 77.32C276.842 73.2133 275.269 68.1467 275.269 62.12C275.269 56.04 276.922 51.16 280.229 47.48C283.535 43.8 287.775 41.96 292.949 41.96C298.122 41.96 302.095 44.2 304.869 48.68V26.44H316.549V83ZM295.829 51.64C293.375 51.64 291.295 52.6267 289.589 54.6C287.935 56.5733 287.109 59.2667 287.109 62.68C287.109 66.04 287.962 68.7333 289.669 70.76C291.375 72.7333 293.509 73.72 296.069 73.72C298.629 73.72 300.735 72.68 302.389 70.6C304.042 68.52 304.869 65.7733 304.869 62.36C304.869 58.9467 303.962 56.3067 302.149 54.44C300.389 52.5733 298.282 51.64 295.829 51.64ZM343.375 50.92C341.508 50.92 339.855 51.6133 338.415 53C336.975 54.3333 336.015 56.3333 335.535 59H349.615V58.04C349.242 53.2933 347.162 50.92 343.375 50.92ZM358.015 80.68C355.242 82.4933 350.762 83.4 344.575 83.4C338.388 83.4 333.428 81.48 329.695 77.64C326.015 73.7467 324.175 68.68 324.175 62.44C324.175 56.1467 325.962 51.1867 329.535 47.56C333.162 43.88 337.642 42.04 342.975 42.04C348.362 42.04 352.628 43.64 355.775 46.84C358.922 49.9867 360.495 54.7067 360.495 61C360.495 62.2267 360.282 64.3333 359.855 67.32H336.015C336.815 69.56 338.202 71.2933 340.175 72.52C342.148 73.7467 344.522 74.36 347.295 74.36C351.402 74.36 354.975 73.2133 358.015 70.92V80.68ZM380.431 83H368.751L368.831 42.44H380.431V49.96C381.178 47.6133 382.405 45.7467 384.111 44.36C385.871 42.92 387.898 42.2 390.191 42.2C391.471 42.2 392.485 42.3067 393.231 42.52V53.56C391.951 52.9733 390.485 52.68 388.831 52.68C386.325 52.68 384.298 53.6133 382.751 55.48C381.205 57.2933 380.431 59.72 380.431 62.76V83ZM410.041 83H398.361L398.441 42.44H410.041V49.96C410.787 47.6133 412.014 45.7467 413.721 44.36C415.481 42.92 417.507 42.2 419.801 42.2C421.081 42.2 422.094 42.3067 422.841 42.52V53.56C421.561 52.9733 420.094 52.68 418.441 52.68C415.934 52.68 413.907 53.6133 412.361 55.48C410.814 57.2933 410.041 59.72 410.041 62.76V83Z" fill="black"/>
<circle cx="351" cy="34" r="5" fill="#1CC88A"/>
<circle cx="336" cy="34" r="5" fill="#1CC88A"/>
</svg>
